<svg width="77" height="77" viewBox="0 0 77 77" fill="none" xmlns="http://www.w3.org/2000/svg">
<path d="M38.5 0C59.763 0 77 17.237 77 38.5C77 40.7241 76.8083 42.9036 76.4463 45.0244C72.2248 40.0892 65.9528 36.96 58.9492 36.96C46.2379 36.9602 35.9336 47.2652 35.9336 59.9766C35.9337 66.5734 38.7095 72.5213 43.1562 76.7178C41.6297 76.9018 40.0761 77 38.5 77C17.237 77 0 59.763 0 38.5C0 17.237 17.237 0 38.5 0ZM59.0059 49.3809C64.3214 49.3811 68.6309 53.6903 68.6309 59.0059C68.6306 64.3213 64.3213 68.6306 59.0059 68.6309C53.6903 68.6309 49.3811 64.3214 49.3809 59.0059C49.3809 53.6901 53.6901 49.3809 59.0059 49.3809Z" fill="url(#paint0_linear_309_458)"/>
<defs>
<linearGradient id="paint0_linear_309_458" x1="38.5" y1="0" x2="38.5" y2="77" gradientUnits="userSpaceOnUse">
<stop stop-color="#FEFFA8"/>
<stop offset="0.264423" stop-color="#50C878"/>
<stop offset="1" stop-color="#87CEEB"/>
</linearGradient>
</defs>
</svg>
