<svg width="226" height="226" viewBox="0 0 226 226" fill="none" xmlns="http://www.w3.org/2000/svg">
<path d="M112.621 0C174.82 0.000202041 225.241 50.4225 225.241 112.621C225.241 119.126 224.688 125.501 223.629 131.704C211.28 117.267 192.931 108.115 172.443 108.115C135.26 108.115 105.116 138.259 105.116 175.442C105.116 194.743 113.238 212.147 126.25 224.423C121.782 224.962 117.234 225.241 112.621 225.241C50.4225 225.241 0.000202094 174.82 0 112.621C0 50.4224 50.4224 0 112.621 0ZM172.605 144.449C188.155 144.449 200.761 157.055 200.761 172.604C200.761 188.154 188.155 200.76 172.605 200.76C157.056 200.76 144.451 188.154 144.451 172.604C144.451 157.055 157.056 144.449 172.605 144.449Z" fill="url(#paint0_linear_1900_4293)"/>
<defs>
<linearGradient id="paint0_linear_1900_4293" x1="112.621" y1="0" x2="112.621" y2="225.241" gradientUnits="userSpaceOnUse">
<stop stop-color="#FEFFA8"/>
<stop offset="0.264423" stop-color="#50C878"/>
<stop offset="1" stop-color="#87CEEB"/>
</linearGradient>
</defs>
</svg>
