<svg width="109" height="102" viewBox="0 0 109 102" fill="none" xmlns="http://www.w3.org/2000/svg">
<path d="M51.0002 95.5002C19.7687 91.9838 6.49986 66.5002 4.49986 60.0002C22.3169 27.4604 53.5867 30.2089 66.4995 35.5002C71.4995 38.0002 94.2597 47.0514 105.744 51.1554C107.009 61.047 81.3494 98.9173 51.0002 95.5002Z" fill="#123957"/>
<path d="M19.5 6.03613C18 16.0361 19.3 37.9361 36.5 45.5361C47.5001 49.0362 81.6 60.5362 90 76.5361H90.7266C81.4663 87.2535 67.7754 94.0361 52.5 94.0361C24.6096 94.0361 2 71.4265 2 43.5361C2 28.0886 8.93777 14.2633 19.8652 5L19.5 6.03613Z" fill="#5BA3D8" fill-opacity="0.5"/>
<path d="M30.9794 89.1747C31.0764 89.2285 31.1743 89.2821 31.273 89.3357C38.2784 92.4516 70.1049 60.4203 76.2921 52.7499C81.9076 45.7882 95.9365 30.0952 102.711 27.1656C111.214 47.0779 103.828 66.3961 99.0722 73.5662C81.7231 103.177 46.4591 97.5738 31.273 89.3357C31.1697 89.2897 31.0718 89.2361 30.9794 89.1747Z" fill="#0A2235"/>
</svg>
